<?xml version="1.0" encoding="UTF-8"?>
<svg version="1.1" xmlns="http://www.w3.org/2000/svg" width="512" height="512">
<path d="M0 0 C1.40749787 -0.00668677 1.40749787 -0.00668677 2.84343004 -0.01350862 C4.40029378 -0.01323207 4.40029378 -0.01323207 5.98860931 -0.01294994 C7.08582164 -0.01662663 8.18303397 -0.02030332 9.31349516 -0.02409142 C13.01522242 -0.03516444 16.71692165 -0.03897826 20.41866302 -0.04278088 C23.06279926 -0.04904291 25.70693247 -0.05567644 28.35106659 -0.0626936 C36.3058537 -0.08247185 44.26064211 -0.09252762 52.21544766 -0.10142139 C55.96185212 -0.10580356 59.70825517 -0.11117069 63.45465851 -0.11641026 C75.91049404 -0.13342672 88.36632869 -0.14791938 100.82217407 -0.155159 C104.05583446 -0.1570689 107.28949485 -0.15898922 110.52315521 -0.16094494 C111.72872303 -0.16167055 111.72872303 -0.16167055 112.95864576 -0.16241082 C125.96892482 -0.17070536 138.97911176 -0.19603065 151.98935062 -0.22852562 C165.34847067 -0.26161958 178.70754397 -0.27961002 192.06670523 -0.28280324 C199.56655427 -0.28496658 207.06626913 -0.29368891 214.56607819 -0.31926441 C220.95576466 -0.34100371 227.34528439 -0.34900618 233.73500365 -0.33929763 C236.99303415 -0.33476166 240.25065007 -0.33879259 243.50864792 -0.35605907 C247.04799282 -0.3737645 250.58647058 -0.3666772 254.12581635 -0.35352612 C255.14587973 -0.36449536 256.16594312 -0.37546461 257.21691751 -0.38676625 C264.90248346 -0.31801163 271.90444902 1.18336966 278.0026474 6.09906483 C278.5182724 6.75004139 279.0338974 7.40101795 279.5651474 8.07172108 C280.3695224 9.04431873 280.3695224 9.04431873 281.1901474 10.03656483 C284.26756059 14.73136847 284.80795725 18.6040639 284.7604599 24.18500233 C284.75621506 25.17321224 284.75621506 25.17321224 284.75188446 26.18138599 C284.74075664 28.27002169 284.71566688 30.35821664 284.6901474 32.44672108 C284.68010799 33.86924089 284.67098382 35.29176748 284.66280365 36.7142992 C284.64084187 40.18774789 284.60636386 43.66094141 284.5651474 47.13422108 C286.2151474 47.13422108 287.8651474 47.13422108 289.5651474 47.13422108 C289.54194427 46.20480701 289.51874115 45.27539295 289.4948349 44.31781483 C289.26907489 28.85325431 289.26907489 28.85325431 293.9401474 23.32172108 C299.46974957 18.71371927 303.89861046 18.76882746 310.8776474 18.75922108 C311.80254974 18.73472889 312.72745209 18.7102367 313.68038177 18.68500233 C319.86445381 18.65863102 323.52466809 19.49572939 328.5651474 23.13422108 C332.6788728 28.4820641 332.68894503 33.88787467 332.6276474 40.44672108 C332.61862396 41.70097889 332.60960052 42.9552367 332.60030365 44.24750233 C332.58290131 45.67642811 332.58290131 45.67642811 332.5651474 47.13422108 C333.8952182 47.09494495 333.8952182 47.09494495 335.25215912 47.05487537 C338.58842926 46.96891147 341.92349845 46.90662066 345.2604599 46.85956287 C346.69587188 46.83464253 348.13115997 46.80069233 349.56612396 46.75702381 C358.27857495 46.49880961 366.44220876 46.37202183 373.5651474 52.13422108 C379.16383508 57.55312661 382.36309144 63.18593502 385.27217865 70.35297108 C385.67971375 71.32123829 386.08724884 72.2895055 386.50713348 73.28711414 C387.81198844 76.39691731 389.09505536 79.51517884 390.3776474 82.63422108 C391.26795661 84.76793282 392.15964265 86.90107058 393.05269623 89.03363514 C395.19679519 94.16200533 397.324503 99.29697246 399.44710541 104.43426991 C400.97149731 108.11551242 402.51222769 111.78976073 404.0573349 115.46234608 C405.70560308 119.386821 407.35257448 123.31171787 408.98311615 127.24359608 C409.26952972 127.93421131 409.5559433 128.62482655 409.85103607 129.33636951 C411.66939174 133.91427417 411.72671292 138.02672669 411.74214935 142.8849535 C411.74872055 143.7796233 411.75529175 144.6742931 411.76206207 145.5960741 C411.78179194 148.56061353 411.79345799 151.52510227 411.80342865 154.48968983 C411.80750418 155.5029817 411.8115797 156.51627357 411.81577873 157.56027126 C411.83663973 162.92516978 411.85094044 168.29004273 411.86031342 173.65497303 C411.87136824 179.18867175 411.90575756 184.72196731 411.94548512 190.25552368 C411.97166877 194.5167206 411.9800069 198.77782178 411.98359489 203.03909206 C411.98845756 205.07837422 412.00006238 207.11765219 412.01863289 209.15685558 C412.04305766 212.01706424 412.04205295 214.87623434 412.0351181 217.736516 C412.05433319 218.99073101 412.05433319 218.99073101 412.07393646 220.2702837 C412.01538432 226.92484731 410.18687508 232.1629297 405.74874115 237.19281483 C405.17253021 237.64785389 404.59631927 238.10289295 404.0026474 238.57172108 C403.42385834 239.04480701 402.84506927 239.51789295 402.24874115 240.00531483 C399.0273583 242.1653604 396.21518093 242.25358543 392.45967865 242.23187733 C391.47676849 242.22865467 390.49385834 242.22543201 389.48116302 242.2221117 C388.45700287 242.2137328 387.43284271 242.20535389 386.3776474 242.19672108 C384.82400482 242.1899535 384.82400482 242.1899535 383.23897552 242.1830492 C380.68097474 242.17126118 378.12309007 242.15480623 375.5651474 242.13422108 C375.4517099 243.19769764 375.3382724 244.2611742 375.2213974 245.35687733 C373.66661657 254.30612173 366.69591311 260.95034206 359.5651474 266.13422108 C350.14593174 271.3570554 340.10211017 272.80591751 329.48311615 270.45062733 C317.87484003 266.53790768 309.67249127 258.89318791 304.2292099 248.02875233 C303.5651474 246.13422108 303.5651474 246.13422108 303.5651474 242.13422108 C258.6851474 242.13422108 213.8051474 242.13422108 167.5651474 242.13422108 C167.2351474 244.11422108 166.9051474 246.09422108 166.5651474 248.13422108 C161.86887853 259.60320828 153.73896981 265.43774847 142.5651474 270.13422108 C134.07324945 272.9365474 124.13460396 271.78773814 116.02999115 268.39593983 C106.82029343 263.68162547 99.03933548 256.04587529 95.5651474 246.13422108 C95.5651474 244.81422108 95.5651474 243.49422108 95.5651474 242.13422108 C93.71167694 242.15778675 93.71167694 242.15778675 91.82076263 242.1818285 C87.21568628 242.23632259 82.61063819 242.2706419 78.00533295 242.299016 C76.0160263 242.31405832 74.02675257 242.3344973 72.03755951 242.36053944 C69.17037051 242.39712353 66.30362181 242.41399326 63.43624115 242.42718983 C62.55367142 242.44267368 61.67110168 242.45815754 60.76178741 242.4741106 C53.00943831 242.47620097 47.01504926 240.43944056 41.25673294 235.05646038 C35.73309274 228.779652 34.98428583 220.73506699 35.11104584 212.7274828 C35.11046173 211.7409119 35.10987762 210.75434101 35.10927582 209.73787403 C35.1120379 206.51284697 35.14304095 203.28877194 35.1745224 200.06390858 C35.18199146 197.81376112 35.18768125 195.56360712 35.19167328 193.31345081 C35.20687714 187.4180523 35.24611372 181.52305386 35.2904892 175.62781239 C35.33155533 169.60135782 35.34970847 163.57483802 35.3698349 157.54828358 C35.41261305 145.74342121 35.48080058 133.93885454 35.5651474 122.13422108 C34.13147827 122.14754475 34.13147827 122.14754475 32.66884613 122.16113758 C23.66387881 122.24220552 14.65898548 122.30217778 5.65373611 122.34146976 C1.02395424 122.36234934 -3.60553317 122.39067356 -8.23514557 122.43597889 C-12.70256954 122.47942371 -17.16971019 122.5033554 -21.6373291 122.51373005 C-23.34221355 122.5211239 -25.0470824 122.5355624 -26.75184631 122.5571413 C-29.13903624 122.58615802 -31.5250539 122.59017794 -33.91239166 122.58832264 C-34.97083031 122.60989429 -34.97083031 122.60989429 -36.05065155 122.63190174 C-39.45506407 122.60325156 -41.15301938 122.35434703 -43.87180328 120.23083973 C-46.03117675 117.33433312 -46.00543472 115.53802103 -45.82938385 112.03656483 C-45.22097153 109.10293312 -43.82338746 107.84031741 -41.4348526 106.13422108 C-37.76314379 104.91031814 -34.37770329 104.98667001 -30.55448151 104.98895741 C-29.75252853 104.98559879 -28.95057556 104.98224018 -28.12432098 104.97877979 C-25.47000332 104.96927151 -22.81574875 104.96732671 -20.1614151 104.96625233 C-18.31680017 104.96303954 -16.4721855 104.95967545 -14.62757111 104.95616627 C-10.75896362 104.95017522 -6.89037847 104.94832633 -3.02176666 104.94891834 C1.93366749 104.94901994 6.88895827 104.93537049 11.84435844 104.91814613 C15.65506904 104.90702329 19.46574502 104.90499923 23.27647018 104.90552807 C25.10329558 104.90434828 26.93012188 104.89992655 28.7569313 104.8921957 C31.31338517 104.8823906 33.8695283 104.88527595 36.42598724 104.89130116 C37.17940903 104.88568165 37.93283081 104.88006214 38.70908356 104.87427235 C44.91590631 104.91141599 48.16036827 105.72944195 52.5651474 110.13422108 C52.5651474 130.92422108 52.5651474 151.71422108 52.5651474 173.13422108 C123.5151474 173.13422108 194.4651474 173.13422108 267.5651474 173.13422108 C267.4620224 148.11609608 267.3588974 123.09797108 267.2526474 97.32172108 C267.21530487 85.45948597 267.21530487 85.45948597 267.17720795 73.35760975 C267.14065638 66.2870191 267.14065638 66.2870191 267.1001358 59.21645069 C267.08215273 56.05990065 267.07258311 52.90344367 267.06803131 49.7468462 C267.06195834 45.72440323 267.04168694 41.70227055 267.01098597 37.67994273 C267.00214441 36.20124937 266.99835619 34.72251545 267.00010812 33.24379671 C267.0017544 31.2509927 266.98337388 29.25820173 266.96387482 27.26549244 C266.95926585 26.14735755 266.95465689 25.02922266 266.94990826 23.8772049 C266.5058636 20.71158323 266.04918777 20.04151443 263.5651474 18.13422108 C261.42328756 17.6873238 261.42328756 17.6873238 259.00889778 17.76063347 C257.59901319 17.75014885 257.59901319 17.75014885 256.16064608 17.73945242 C254.60887213 17.7508165 254.60887213 17.7508165 253.02574921 17.76241016 C251.37948266 17.75667332 251.37948266 17.75667332 249.69995821 17.75082058 C246.00336396 17.74149657 242.30714044 17.75355174 238.61055756 17.76532459 C235.96800318 17.76285804 233.32547749 17.75918381 230.68292999 17.75391102 C224.98295344 17.74474547 219.28305736 17.74609015 213.58308029 17.75409603 C205.33638374 17.76531469 197.08980215 17.75629808 188.84311561 17.74153423 C175.45684173 17.71774921 162.07058201 17.7043948 148.68428802 17.70038319 C147.48208705 17.70001588 147.48208705 17.70001588 146.25559919 17.69964116 C137.31432771 17.6970954 128.37305733 17.69652833 119.43178558 17.69757557 C116.19010671 17.69790859 112.94842784 17.69819399 109.70674896 17.69843006 C108.90686234 17.69849285 108.10697571 17.69855564 107.2828501 17.69862033 C93.94968378 17.69922494 80.61658287 17.68435205 67.28344381 17.65759701 C59.05689154 17.64177855 50.83055022 17.63954777 42.60399567 17.65473103 C36.96742998 17.66418651 31.33099157 17.6594556 25.69444086 17.6435172 C22.44108473 17.63480947 19.18813714 17.6348977 15.93478584 17.64804363 C12.40905049 17.66134362 8.88421148 17.65026421 5.35851288 17.63301563 C4.32845835 17.64282241 3.29840383 17.65262919 2.23713553 17.66273314 C-2.18879371 17.61778965 -4.72470548 17.56597358 -8.5701313 15.22804642 C-10.58338812 12.96743613 -11.09632052 12.11490201 -10.9973526 9.13422108 C-10.8080828 6.05428528 -10.51598873 5.23969804 -8.5598526 2.69672108 C-5.46063991 0.41788822 -3.79196421 0.00833177 0 0 Z M306.5651474 36.13422108 C306.5651474 39.76422108 306.5651474 43.39422108 306.5651474 47.13422108 C309.5351474 47.13422108 312.5051474 47.13422108 315.5651474 47.13422108 C315.5651474 43.50422108 315.5651474 39.87422108 315.5651474 36.13422108 C312.5951474 36.13422108 309.6251474 36.13422108 306.5651474 36.13422108 Z M284.5651474 64.13422108 C284.5651474 117.26422108 284.5651474 170.39422108 284.5651474 225.13422108 C290.8351474 225.13422108 297.1051474 225.13422108 303.5651474 225.13422108 C304.2457724 223.31922108 304.9263974 221.50422108 305.6276474 219.63422108 C309.31600001 210.83812174 314.73288633 204.09972604 323.5651474 200.13422108 C335.76652214 196.00042198 345.61518621 196.12915679 357.5651474 201.13422108 C367.27355604 206.71908804 371.8881858 214.9096875 375.5651474 225.13422108 C378.54437333 225.16106095 381.52336035 225.18098145 384.5026474 225.19672108 C385.35278412 225.20509998 386.20292084 225.21347889 387.07881927 225.2221117 C387.88770599 225.22533436 388.69659271 225.22855701 389.52999115 225.23187733 C390.2788559 225.23711414 391.02772064 225.24235096 391.79927826 225.24774647 C393.59182479 225.3276386 393.59182479 225.3276386 394.5651474 224.13422108 C394.63662939 222.7817819 394.64914194 221.42587741 394.6276474 220.07172108 C394.6070224 218.77234608 394.5863974 217.47297108 394.5651474 216.13422108 C393.54034271 216.0852367 392.51553802 216.03625233 391.45967865 215.98578358 C390.0989768 215.91071037 388.73830096 215.83516453 387.3776474 215.75922108 C386.70411224 215.72828358 386.03057709 215.69734608 385.33663177 215.66547108 C381.39996743 215.43503219 377.98544153 215.17264134 374.5651474 213.13422108 C371.57278371 207.39984037 372.23002052 201.07975661 372.24947357 194.78705311 C372.25263808 192.64054247 372.22913106 190.49540585 372.20381927 188.34906483 C372.20154634 186.97536864 372.20084276 185.60166877 372.20186615 184.22797108 C372.19888519 182.98724842 372.19590424 181.74652576 372.19283295 180.46820545 C372.59691015 176.84979349 373.37150211 175.00889688 375.5651474 172.13422108 C379.22243145 169.69603171 382.49802635 169.46255188 386.7526474 169.00922108 C387.50223724 168.92285389 388.25182709 168.8364867 389.02413177 168.74750233 C390.87032152 168.53583726 392.71764084 168.33406644 394.5651474 168.13422108 C396.9275042 145.40471423 392.71452529 129.29792257 382.81224823 108.94386768 C380.1454745 103.44902919 377.71085321 97.88439242 375.3698349 92.24359608 C375.03268967 91.43428638 374.69554443 90.62497669 374.34818268 89.79114246 C373.03502528 86.63460015 371.72471609 83.47692947 370.4227829 80.31573963 C369.52946045 78.15665037 368.6214045 76.00434074 367.70967865 73.85297108 C367.31986313 72.89460346 367.31986313 72.89460346 366.92217255 71.91687489 C365.22099199 67.9431726 364.21908552 66.87467467 360.5651474 64.13422108 C335.4851474 64.13422108 310.4051474 64.13422108 284.5651474 64.13422108 Z M388.5651474 185.13422108 C388.5651474 189.75422108 388.5651474 194.37422108 388.5651474 199.13422108 C390.5451474 199.13422108 392.5251474 199.13422108 394.5651474 199.13422108 C394.5651474 194.51422108 394.5651474 189.89422108 394.5651474 185.13422108 C392.5851474 185.13422108 390.6051474 185.13422108 388.5651474 185.13422108 Z M52.5651474 190.13422108 C52.5651474 200.36422108 52.5651474 210.59422108 52.5651474 221.13422108 C55.88749369 225.14770831 55.88749369 225.14770831 58.52675629 225.61523914 C59.21070465 225.6063567 59.89465302 225.59747425 60.59932709 225.58832264 C61.77008789 225.58786945 61.77008789 225.58786945 62.96450043 225.58740711 C63.79693268 225.56676197 64.62936493 225.54611683 65.4870224 225.52484608 C66.34700836 225.51918629 67.20699432 225.5135265 68.09304047 225.5076952 C70.83431389 225.48534058 73.57427044 225.4351471 76.3151474 225.38422108 C78.17580558 225.36415484 80.03648429 225.34590428 81.89717865 225.32953358 C86.45367406 225.28547892 91.00918762 225.21645862 95.5651474 225.13422108 C95.88765472 224.31945301 96.21016205 223.50468494 96.54244232 222.66522694 C96.97661469 221.59151844 97.41078705 220.51780994 97.85811615 219.41156483 C98.28374847 218.34929676 98.7093808 217.28702869 99.14791107 216.19257069 C102.98346847 207.91556335 109.70151042 202.31767749 118.1667099 199.16547108 C129.32236383 195.77163833 138.79880011 196.57403889 149.5651474 201.13422108 C159.42082313 206.8122671 163.66199262 214.72580832 167.5651474 225.13422108 C200.5651474 225.13422108 233.5651474 225.13422108 267.5651474 225.13422108 C267.5651474 213.58422108 267.5651474 202.03422108 267.5651474 190.13422108 C196.6151474 190.13422108 125.6651474 190.13422108 52.5651474 190.13422108 Z M115.0104599 221.22015858 C110.89241625 226.67378395 110.84572855 232.56721824 111.5651474 239.13422108 C113.18692177 245.12862762 116.61419464 248.45648736 121.5651474 252.00531483 C125.92821665 254.4680629 130.64196815 254.65050954 135.5651474 254.13422108 C141.79162742 252.02354989 146.52297121 249.31924322 149.8776474 243.57172108 C152.65354575 237.53470638 152.49490534 231.15593437 150.5651474 224.88422108 C146.50156175 219.29679081 141.51919308 214.49479523 134.5651474 213.13422108 C126.34837541 212.24109369 120.60792579 215.51855379 115.0104599 221.22015858 Z M326.32686615 218.23578358 C320.8086028 224.25392513 319.19084077 228.12309678 319.28780365 236.27875233 C319.84039212 241.96807869 322.22756853 246.19572863 326.4401474 250.00922108 C331.86908285 253.70089718 337.01552016 254.95927102 343.5651474 254.13422108 C350.21989864 251.8783732 355.45897104 248.68644529 358.8385849 242.32562733 C360.74273383 236.58246847 360.32880712 230.344815 358.3776474 224.69672108 C354.74603341 219.56237026 350.61626736 215.04537262 344.3073349 213.62640858 C337.11293169 212.59235062 331.74554645 213.14808724 326.32686615 218.23578358 Z " fill="#000000" transform="translate(53.434852600097656,229.86577892303467)"/>
<path d="M0 0 C10.40914169 8.54032534 18.47115391 17.90710707 25.11328125 29.6015625 C25.95826172 31.06335937 25.95826172 31.06335937 26.8203125 32.5546875 C38.24912065 53.73414968 41.21055026 81.69714448 35.02416992 104.88818359 C26.96139618 131.69155039 10.04643054 153.57407672 -14.265625 167.54296875 C-38.53983513 180.32904303 -66.37084271 183.38135416 -92.76171875 175.4765625 C-118.17961956 167.32904993 -139.57714541 150.16100769 -152.15234375 126.453125 C-164.36988212 102.1955562 -167.08422932 73.33915272 -158.85546875 47.34375 C-154.10523238 34.02383045 -147.45352268 22.04233221 -137.88671875 11.6015625 C-137.06558594 10.68761719 -136.24445313 9.77367188 -135.3984375 8.83203125 C-99.98180528 -28.68336436 -40.21457823 -31.19107364 0 0 Z M-98.88671875 3.6015625 C-99.81097656 4.04371094 -100.73523438 4.48585938 -101.6875 4.94140625 C-121.48038357 15.04781498 -135.66755511 32.73708578 -142.88671875 53.6015625 C-143.20640625 54.51292969 -143.52609375 55.42429688 -143.85546875 56.36328125 C-148.43302318 72.23637509 -147.59166308 91.19445956 -141.88671875 106.6015625 C-141.53609375 107.62894531 -141.18546875 108.65632813 -140.82421875 109.71484375 C-132.91624549 130.88514718 -116.04747556 146.45377649 -95.92578125 155.875 C-87.7562873 159.4949918 -78.85356892 162.22401091 -69.88671875 162.6015625 C-68.80132812 162.653125 -67.7159375 162.7046875 -66.59765625 162.7578125 C-42.35885934 163.36001863 -20.97010799 154.34841627 -3.31738281 137.98925781 C10.42987731 124.65488469 19.70912451 105.01643078 20.44921875 85.81640625 C20.83443471 59.38514826 13.92923053 38.14711658 -4.51171875 18.85546875 C-21.09514911 3.01925691 -41.95496672 -4.95220425 -64.7722168 -4.75195312 C-76.8944046 -4.4105174 -87.95000034 -1.69331772 -98.88671875 3.6015625 Z " fill="#000000" transform="translate(466.88671875,32.3984375)"/>
<path d="M0 0 C7.06194236 4.55102952 9.1776649 11.99859012 12.0625 19.5 C12.75085938 21.2005957 12.75085938 21.2005957 13.453125 22.93554688 C16.03857218 29.61077136 17.97364536 35.61634057 16.8125 42.8125 C15.68359375 45.36328125 15.68359375 45.36328125 14.25 47.125 C12.47603577 49.34125341 11.81159968 50.27500741 11.81640625 53.14453125 C13.2036182 56.86008327 15.61120018 59.37453876 18.3125 62.1875 C18.84842773 62.75750732 19.38435547 63.32751465 19.93652344 63.91479492 C24.20333881 68.37007611 28.73931874 72.28945746 33.8125 75.8125 C34.59753906 75.379375 35.38257813 74.94625 36.19140625 74.5 C37.24199219 73.943125 38.29257812 73.38625 39.375 72.8125 C40.40753906 72.255625 41.44007813 71.69875 42.50390625 71.125 C50.63993819 67.8974832 57.77535596 71.23790375 65.45605469 74.18261719 C67.43201004 74.93540846 69.41783582 75.65586997 71.40625 76.375 C78.98450859 79.19637924 84.09090314 81.36930627 87.8125 88.8125 C89.56228239 96.653506 86.50913048 102.05332653 82.43823242 108.46875 C81.2539016 110.26817693 80.04403291 112.04512547 78.8125 113.8125 C77.99458984 114.988125 77.99458984 114.988125 77.16015625 116.1875 C72.94521754 121.60503895 67.52220877 124.50889944 60.8125 125.8125 C39.34729857 127.24351343 16.34106383 111.78404474 0.8125 98.8125 C0.17441406 98.29816406 -0.46367187 97.78382813 -1.12109375 97.25390625 C-19.34854228 82.27411002 -35.56652806 56.69750797 -38.55859375 32.85546875 C-38.74912111 24.66279233 -37.16549199 18.45168412 -31.75390625 12.140625 C-23.61996758 4.59492629 -11.27443367 -4.20027921 0 0 Z M-14.1875 21.1875 C-15.074375 21.81398438 -15.96125 22.44046875 -16.875 23.0859375 C-19.22512348 24.75441353 -19.22512348 24.75441353 -21.1875 26.8125 C-22.61305768 40.91958122 -11.9229507 58.63247419 -3.51171875 69.296875 C-0.83724852 72.56375577 1.96491208 75.69571617 4.8125 78.8125 C5.46863281 79.55113281 6.12476563 80.28976563 6.80078125 81.05078125 C19.03126279 94.11932577 38.85490111 106.1958213 56.8125 108.8125 C62.70424001 107.13516629 65.0389363 103.25803577 67.93359375 98.13671875 C68.55363281 97.03972656 69.17367187 95.94273437 69.8125 94.8125 C66.92505688 93.60383415 64.02650173 92.42447063 61.125 91.25 C60.30837891 90.90775391 59.49175781 90.56550781 58.65039062 90.21289062 C52.84866719 87.77653051 52.84866719 87.77653051 46.8125 88.8125 C45.78125 89.493125 44.75 90.17375 43.6875 90.875 C38.82527598 93.68335353 34.26049771 94.08860757 28.8125 92.8125 C24.06032857 90.27129172 20.00157717 87.18779295 15.8125 83.8125 C15.08160156 83.26335937 14.35070312 82.71421875 13.59765625 82.1484375 C5.25001791 75.49081183 -5.39834003 63.80220261 -6.625 52.9375 C-6.43101685 47.60806814 -3.81249214 43.40034827 -1.03710938 38.98046875 C0.07103324 36.15279449 -0.42813826 35.06052652 -1.5234375 32.265625 C-2.00683594 30.99912109 -2.00683594 30.99912109 -2.5 29.70703125 C-2.850625 28.83433594 -3.20125 27.96164063 -3.5625 27.0625 C-3.90539062 26.17433594 -4.24828125 25.28617188 -4.6015625 24.37109375 C-5.45003655 22.17920246 -6.31230653 19.99382941 -7.1875 17.8125 C-10.20415936 17.8125 -11.75897604 19.45788264 -14.1875 21.1875 Z " fill="#000000" transform="translate(379.1875,49.1875)"/>
<path d="M0 0 C0.86785126 -0.01606293 1.73570251 -0.03212585 2.62985229 -0.04867554 C6.59567503 -0.09309588 10.56133057 -0.13417921 14.52734375 -0.15722656 C16.62055569 -0.17380067 18.7137107 -0.20110969 20.80664062 -0.23925781 C23.82207643 -0.29394558 26.83618629 -0.31588677 29.85205078 -0.33056641 C30.78757782 -0.35323578 31.72310486 -0.37590515 32.6869812 -0.39926147 C39.13993488 -0.37822271 39.13993488 -0.37822271 42.39453125 2.44897461 C43.78463114 5.16796741 44.27455337 6.61051548 44.18798828 9.61865234 C44.17509766 10.41464844 44.16220703 11.21064453 44.14892578 12.03076172 C44.11541016 12.84738281 44.08189453 13.66400391 44.04736328 14.50537109 C44.02931641 15.34132813 44.01126953 16.17728516 43.99267578 17.03857422 C43.94577454 19.09050338 43.87403739 21.14183865 43.79736328 23.19287109 C45.03873047 23.14646484 46.28009766 23.10005859 47.55908203 23.05224609 C49.20098499 23.01471688 50.84291405 22.97831795 52.48486328 22.94287109 C53.30148438 22.90935547 54.11810547 22.87583984 54.95947266 22.84130859 C55.75546875 22.82841797 56.55146484 22.81552734 57.37158203 22.80224609 C58.46345825 22.7708252 58.46345825 22.7708252 59.57739258 22.73876953 C63.03974096 23.44700312 64.46355133 24.51860664 66.79736328 27.19287109 C67.53574779 30.48260984 67.47420492 33.70813372 67.42626953 37.06787109 C67.42868149 38.02935059 67.43109344 38.99083008 67.43357849 39.98144531 C67.43259992 42.01224903 67.41920406 44.04307938 67.39428711 46.07373047 C67.35998244 49.18207419 67.37362647 52.28757468 67.39306641 55.39599609 C67.38616784 57.36996653 67.37649537 59.34392962 67.36376953 61.31787109 C67.37120934 62.71175049 67.37120934 62.71175049 67.37879944 64.13378906 C67.26253423 70.50416128 67.26253423 70.50416128 65.04614258 73.78564453 C62.50702982 75.37455409 61.22022818 75.66375933 58.25048828 75.58349609 C57.40615234 75.57060547 56.56181641 75.55771484 55.69189453 75.54443359 C54.81919922 75.51091797 53.94650391 75.47740234 53.04736328 75.44287109 C52.15919922 75.42482422 51.27103516 75.40677734 50.35595703 75.38818359 C48.1686548 75.34114484 45.98356512 75.27544118 43.79736328 75.19287109 C43.84376953 76.43423828 43.89017578 77.67560547 43.93798828 78.95458984 C43.97551749 80.5964928 44.01191642 82.23842186 44.04736328 83.88037109 C44.08087891 84.69699219 44.11439453 85.51361328 44.14892578 86.35498047 C44.2153005 90.45361934 44.13817105 92.62995571 41.96923828 96.21240234 C37.88751175 99.93440837 33.3734357 99.36898149 28.14892578 99.39599609 C27.29938324 99.40169617 26.4498407 99.40739624 25.57455444 99.41326904 C23.77741743 99.42271214 21.98026316 99.42925029 20.18310547 99.43310547 C17.43963291 99.44281001 14.69691001 99.47383895 11.95361328 99.50537109 C10.20622189 99.5119016 8.45882515 99.51715189 6.71142578 99.52099609 C5.89356598 99.5333429 5.07570618 99.5456897 4.23306274 99.55841064 C-0.40540735 99.54034962 -3.43300336 99.20012202 -7.20263672 96.19287109 C-9.71965554 92.01039971 -9.43772437 87.61837443 -9.32763672 82.88037109 C-9.31861328 82.13980469 -9.30958984 81.39923828 -9.30029297 80.63623047 C-9.27687885 78.82163642 -9.24101287 77.00721038 -9.20263672 75.19287109 C-10.45560547 75.22767578 -11.70857422 75.26248047 -12.99951172 75.29833984 C-14.65053996 75.32648237 -16.30158273 75.35378203 -17.95263672 75.38037109 C-18.77763672 75.40550781 -19.60263672 75.43064453 -20.45263672 75.45654297 C-26.56135768 75.53043879 -26.56135768 75.53043879 -29.71826172 73.86865234 C-33.11073077 70.03873333 -32.38150532 65.14161318 -32.40576172 60.32568359 C-32.41146179 59.45394501 -32.41716187 58.58220642 -32.42303467 57.68405151 C-32.43247854 55.83983573 -32.43901622 53.99560312 -32.44287109 52.15136719 C-32.45257605 49.33547423 -32.48360458 46.5203115 -32.51513672 43.70458984 C-32.52166715 41.91162542 -32.52691747 40.11865579 -32.53076172 38.32568359 C-32.54310852 37.48595001 -32.55545532 36.64621643 -32.56817627 35.78103638 C-32.55040407 31.09818195 -32.26127964 27.98964664 -29.20263672 24.19287109 C-26.90609972 23.04460259 -25.61950505 23.07725934 -23.06982422 23.09521484 C-22.26416016 23.0984375 -21.45849609 23.10166016 -20.62841797 23.10498047 C-19.78666016 23.11335938 -18.94490234 23.12173828 -18.07763672 23.13037109 C-17.22814453 23.13488281 -16.37865234 23.13939453 -15.50341797 23.14404297 C-13.40312763 23.15584235 -11.30287342 23.17377803 -9.20263672 23.19287109 C-9.25484375 21.56478516 -9.25484375 21.56478516 -9.30810547 19.90380859 C-9.3362606 18.45851167 -9.36355891 17.01319788 -9.39013672 15.56787109 C-9.41527344 14.85501953 -9.44041016 14.14216797 -9.46630859 13.40771484 C-9.53254984 8.59418418 -8.85707346 5.37055603 -6.20263672 1.19287109 C-3.90875425 0.04592986 -2.55241782 0.04290032 0 0 Z M7.79736328 16.19287109 C7.54812152 22.31028276 7.54812152 22.31028276 7.31933594 28.4284668 C7.26592041 29.57448364 7.26592041 29.57448364 7.21142578 30.74365234 C7.18000488 31.52393799 7.14858398 32.30422363 7.11621094 33.1081543 C6.79736328 35.19287109 6.79736328 35.19287109 4.79736328 38.19287109 C2.20478659 39.05706333 0.45698621 39.36868041 -2.21435547 39.50927734 C-2.89715576 39.54738525 -3.57995605 39.58549316 -4.28344727 39.62475586 C-5.14365479 39.66785889 -6.0038623 39.71096191 -6.89013672 39.75537109 C-9.63326172 39.89974609 -12.37638672 40.04412109 -15.20263672 40.19287109 C-15.20263672 46.13287109 -15.20263672 52.07287109 -15.20263672 58.19287109 C-9.78850965 58.44180757 -9.78850965 58.44180757 -4.37353516 58.67089844 C2.80168694 59.04648444 2.80168694 59.04648444 5.79736328 61.19287109 C6.9439081 63.48596073 6.99465445 64.99196766 7.11376953 67.54443359 C7.1709314 68.69419678 7.1709314 68.69419678 7.22924805 69.8671875 C7.27235107 70.84091309 7.3154541 71.81463867 7.35986328 72.81787109 C7.50423828 75.91162109 7.64861328 79.00537109 7.79736328 82.19287109 C14.06736328 82.19287109 20.33736328 82.19287109 26.79736328 82.19287109 C26.92803258 76.49465191 26.92803258 76.49465191 27.00512695 70.7956543 C27.16304491 66.76082799 27.52820501 64.6008141 29.79736328 61.16162109 C33.80344961 58.53262694 36.91854198 58.41762874 41.60986328 58.38037109 C44.31173828 58.31849609 47.01361328 58.25662109 49.79736328 58.19287109 C49.79736328 52.25287109 49.79736328 46.31287109 49.79736328 40.19287109 C44.38303519 39.90451741 44.38303519 39.90451741 38.96826172 39.62475586 C38.28795898 39.58664795 37.60765625 39.54854004 36.90673828 39.50927734 C36.21547852 39.47261963 35.52421875 39.43596191 34.81201172 39.39819336 C32.67537833 39.18043904 30.8166995 38.93961049 28.79736328 38.19287109 C27.88902359 35.46785202 27.61376343 33.57053139 27.48095703 30.74365234 C27.42379517 29.5976355 27.42379517 29.5976355 27.36547852 28.4284668 C27.32237549 27.46384521 27.27927246 26.49922363 27.23486328 25.50537109 C27.09048828 22.43224609 26.94611328 19.35912109 26.79736328 16.19287109 C20.52736328 16.19287109 14.25736328 16.19287109 7.79736328 16.19287109 Z " fill="#000000" transform="translate(196.20263671875,275.80712890625)"/>
<path d="M0 0 C1.87236832 -0.01913956 1.87236832 -0.01913956 3.78256226 -0.03866577 C5.15142665 -0.04172333 6.52029312 -0.04395114 7.88916016 -0.04541016 C9.28919615 -0.05183531 10.68923078 -0.05856346 12.08926392 -0.06558228 C15.02650057 -0.07756806 17.96361951 -0.08126185 20.90087891 -0.08007812 C24.66282486 -0.07987501 28.42401467 -0.10716203 32.18578148 -0.14162254 C35.07859759 -0.16387446 37.97123136 -0.16791619 40.8641243 -0.16685867 C42.25080595 -0.16921781 43.63749239 -0.17805906 45.02408981 -0.19352341 C46.96517958 -0.21314199 48.90649069 -0.20483344 50.84765625 -0.1953125 C51.95192963 -0.19816254 53.056203 -0.20101257 54.19393921 -0.20394897 C57.72391717 0.40651534 58.84689307 1.52961068 61.05322266 4.29052734 C62.41845703 6.76293945 62.41845703 6.76293945 63.64697266 9.56787109 C64.34826294 11.15390137 64.34826294 11.15390137 65.0637207 12.77197266 C65.55525635 13.9124707 66.04679199 15.05296875 66.55322266 16.22802734 C67.06860596 17.40848633 67.58398926 18.58894531 68.11499023 19.80517578 C69.77853259 23.62620328 71.41677112 27.45783862 73.05322266 31.29052734 C73.62401384 32.62207443 74.19481466 33.95361738 74.765625 35.28515625 C76.16918473 38.56554117 77.56028844 41.8509661 78.94189453 45.14065552 C79.47031133 46.3974017 80.00103796 47.65317942 80.53417969 48.90792847 C81.28205464 50.67252712 82.01747098 52.44238996 82.75244141 54.21240234 C83.17356201 55.21883789 83.59468262 56.22527344 84.02856445 57.26220703 C85.57426384 61.83043556 86.79153812 65.67326489 84.74072266 70.16552734 C83.05322266 72.29052734 83.05322266 72.29052734 81.05322266 73.29052734 C78.32855606 73.40456055 75.62886148 73.45836885 72.90332031 73.4675293 C72.06089279 73.47410049 71.21846527 73.48067169 70.35050964 73.48744202 C67.55610064 73.5071915 64.76174537 73.51884032 61.96728516 73.52880859 C61.01427898 73.53288412 60.06127281 73.53695965 59.07938766 73.54115868 C54.03681402 73.56202493 48.99426765 73.57632511 43.95166016 73.58569336 C38.7370141 73.59676825 33.52279354 73.63117898 28.30829811 73.67086506 C24.30375358 73.69697649 20.29931136 73.70538024 16.29468918 73.70897484 C14.37211605 73.71385378 12.44954788 73.72550478 10.52705765 73.74401283 C7.83833054 73.7682916 5.15071661 73.76746025 2.46191406 73.76049805 C1.665923 73.77330811 0.86993195 73.78611816 0.04981995 73.79931641 C-3.4909419 73.76584911 -5.53418319 73.59906684 -8.40982056 71.44865417 C-10.97168574 67.85139625 -11.07934431 64.90730103 -11.10791016 60.61328125 C-11.1175177 59.44842194 -11.12712524 58.28356262 -11.13702393 57.08340454 C-11.1412738 55.82402069 -11.14552368 54.56463684 -11.14990234 53.26708984 C-11.15560242 51.9736264 -11.16130249 50.68016296 -11.16717529 49.34750366 C-11.17767407 46.608781 -11.1835241 43.8700876 -11.18701172 41.13134766 C-11.19249472 37.62862211 -11.21652276 34.12628562 -11.24498367 30.62368202 C-11.26812991 27.27565879 -11.27006085 23.92768894 -11.27490234 20.57958984 C-11.28724915 19.32425446 -11.29959595 18.06891907 -11.31231689 16.77554321 C-11.3093158 15.60437958 -11.3063147 14.43321594 -11.30322266 13.2265625 C-11.30686829 12.19858551 -11.31051392 11.17060852 -11.31427002 10.11148071 C-10.38397404 2.97032726 -6.85001226 0.04735882 0 0 Z M6.05322266 17.29052734 C6.05322266 30.16052734 6.05322266 43.03052734 6.05322266 56.29052734 C25.19322266 56.29052734 44.33322266 56.29052734 64.05322266 56.29052734 C62.16967809 50.63989365 60.30348287 45.26195011 57.91650391 39.84912109 C57.39612549 38.65343506 56.87574707 37.45774902 56.33959961 36.22583008 C55.68822021 34.74155518 55.03684082 33.25728027 54.36572266 31.72802734 C52.28259766 26.96365234 50.19947266 22.19927734 48.05322266 17.29052734 C34.19322266 17.29052734 20.33322266 17.29052734 6.05322266 17.29052734 Z " fill="#000000" transform="translate(353.94677734375,298.70947265625)"/>
<path d="M0 0 C0.78244583 -0.0049649 1.56489166 -0.00992981 2.37104797 -0.01504517 C4.96042764 -0.02965447 7.54974605 -0.0364665 10.13916016 -0.04199219 C11.93893434 -0.04774437 13.73870851 -0.05350209 15.53848267 -0.05926514 C19.31293015 -0.06977142 23.08735636 -0.07561662 26.86181641 -0.07910156 C31.69624638 -0.0845875 36.53039488 -0.10861917 41.36473656 -0.13707352 C45.08280253 -0.15570416 48.80080074 -0.16090571 52.51890945 -0.16243744 C54.3010881 -0.1654632 56.08326558 -0.17348918 57.86539841 -0.18662262 C60.35970186 -0.20369322 62.85331794 -0.20180064 65.34765625 -0.1953125 C66.08237656 -0.20452728 66.81709686 -0.21374207 67.57408142 -0.22323608 C71.99616116 -0.18723579 74.80102073 0.42027039 78.30322266 3.16113281 C80.6487194 6.67937793 80.88313668 8.01888975 80.30322266 12.16113281 C77.53687291 15.83021256 76.05014326 17.03891948 71.463974 17.7893219 C69.94439432 17.81585486 68.42418156 17.81501857 66.90454102 17.79223633 C66.07142899 17.79939163 65.23831696 17.80654694 64.37995911 17.81391907 C61.63376573 17.83078994 58.8892084 17.81141538 56.14306641 17.79003906 C54.23165248 17.79086783 52.32023862 17.79332753 50.40882874 17.79734802 C46.40652976 17.80020481 42.40479079 17.78551504 38.40258789 17.75805664 C33.27197807 17.72395099 28.14236804 17.73000085 23.01171017 17.74871922 C19.06628583 17.75928554 15.12109429 17.75035512 11.1756916 17.7353344 C9.28385675 17.73015097 7.3919976 17.73063633 5.50016594 17.73687935 C2.85708151 17.74232806 0.21543082 17.72196927 -2.42749023 17.69458008 C-3.60038101 17.7043689 -3.60038101 17.7043689 -4.79696655 17.71435547 C-8.35364169 17.65166343 -10.32004938 17.45059863 -13.18040466 15.25279236 C-15.28184156 12.35410485 -15.26599288 10.53775289 -15.09130859 7.06347656 C-14.48289627 4.12984486 -13.0853122 2.86722914 -10.69677734 1.16113281 C-7.08028753 -0.04436379 -3.76524553 0.00569734 0 0 Z " fill="#000000" transform="translate(46.69677734375,299.8388671875)"/>
<path d="M0 0 C0.79205338 -0.0049649 1.58410675 -0.00992981 2.40016174 -0.01504517 C5.02744406 -0.02968175 7.65466598 -0.03647166 10.28198242 -0.04199219 C12.1056061 -0.04774291 13.92922976 -0.05350065 15.75285339 -0.05926514 C19.58035565 -0.06977973 23.40783688 -0.07561923 27.23535156 -0.07910156 C32.13818995 -0.08458379 37.04075026 -0.10860405 41.94350147 -0.13707352 C45.71218169 -0.15570522 49.48079505 -0.16090581 53.24951744 -0.16243744 C55.05681565 -0.16546387 56.86411269 -0.17349209 58.67136574 -0.18662262 C61.20169785 -0.2036925 63.73135229 -0.20180058 66.26171875 -0.1953125 C67.00736084 -0.20452728 67.75300293 -0.21374207 68.52124023 -0.22323608 C72.96928797 -0.18753887 75.80402613 0.39687548 79.32495117 3.16113281 C81.40405307 6.27978566 81.60654492 6.69852803 81.19995117 10.16113281 C81.13549805 10.84175781 81.07104492 11.52238281 81.00463867 12.22363281 C80.02135279 15.02656269 78.9171594 15.69067975 76.32495117 17.16113281 C73.48958306 17.45670081 70.87460965 17.58147319 68.03979492 17.56518555 C67.20682892 17.5720488 66.37386292 17.57891205 65.51565552 17.58598328 C62.76441365 17.6042732 60.01374075 17.60041109 57.26245117 17.59472656 C55.34960748 17.59928697 53.43676544 17.60459211 51.52392578 17.61061096 C47.51580141 17.61954611 43.50787624 17.61711393 39.49975586 17.60717773 C34.36132863 17.59568123 29.22358789 17.61590791 24.08525085 17.64509487 C20.13557564 17.66343214 16.18606574 17.66316947 12.23635864 17.65745735 C10.34171586 17.65730387 8.44706207 17.66337054 6.55245972 17.67574883 C3.90456931 17.69061232 1.25795756 17.68001692 -1.38989258 17.6628418 C-2.17339081 17.67250977 -2.95688904 17.68217773 -3.76412964 17.69213867 C-7.32708675 17.64369833 -9.29232273 17.45478446 -12.15966797 15.254776 C-14.25888189 12.35451176 -14.24169523 10.53763726 -14.07348633 7.06347656 C-13.46609306 4.16347143 -12.01005091 2.87804611 -9.67504883 1.16113281 C-6.60157834 -0.37560243 -3.37316911 0.00501617 0 0 Z " fill="#000000" transform="translate(32.675048828125,264.8388671875)"/>
<path d="M0 0 C3.69186542 2.59216083 4.82883761 4.04149064 5.625 8.5 C5.01520393 11.91485797 4.44951098 13.48385814 1.81640625 15.734375 C-3.42457232 19.38615362 -8.53281805 22.56227417 -14.875 23.6875 C-19.0116558 22.77743572 -20.54279625 21.42519311 -23 18 C-23.56953445 14.01325887 -23.22767242 11.33525112 -21 8 C-18.78149458 6.42316346 -16.6702954 5.07487983 -14.3125 3.75 C-13.71244141 3.38648438 -13.11238281 3.02296875 -12.49414062 2.6484375 C-8.22441215 0.20859266 -5.02187273 -0.56541666 0 0 Z " fill="#000000" transform="translate(420,244)"/>
<path d="M0 0 C2.9375 2.125 2.9375 2.125 5 5 C5.69178875 10.25609059 3.93176531 13.78130325 1.3125 18.1875 C0.97283203 18.80302734 0.63316406 19.41855469 0.28320312 20.05273438 C-1.93838037 23.88548496 -3.92788337 26.20038717 -8 28 C-11.52349544 27.92809193 -13.4340868 27.37231132 -16.375 25.4375 C-18.16555611 22.75166583 -18.80116172 20.73921958 -18.66015625 17.49609375 C-16.23040024 8.30902813 -10.2795682 -1.24063754 0 0 Z " fill="#000000" transform="translate(398,222)"/>
<path d="M0 0 C4.52508964 0.80805172 5.72941993 1.977536 8.5 5.625 C9.22389145 8.81174413 9.1997858 11.86932473 9.125 15.125 C9.15400391 16.38763672 9.15400391 16.38763672 9.18359375 17.67578125 C9.14878073 22.09703447 8.92479934 24.06575239 6.1796875 27.6796875 C3.5 29.625 3.5 29.625 0 30.25 C-4.52508964 29.44194828 -5.72941993 28.272464 -8.5 24.625 C-9.22389145 21.43825587 -9.1997858 18.38067527 -9.125 15.125 C-9.14433594 14.28324219 -9.16367187 13.44148437 -9.18359375 12.57421875 C-9.14878073 8.15296553 -8.92479934 6.18424761 -6.1796875 2.5703125 C-3.5 0.625 -3.5 0.625 0 0 Z " fill="#000000" transform="translate(364.5,213.375)"/>
<path d="M0 0 C3.02182284 2.05741129 4.69011377 3.49949825 5.4453125 7.15625 C5.6370433 10.99086602 5.23221976 13.51536745 3.5625 17 C-0.08801231 19.84918034 -3.42336575 20.2942122 -8 20 C-11.670261 18.43818681 -12.7727373 17.34089404 -15 14 C-15.5454104 10.93421943 -15.53808365 8.0670768 -15 5 C-10.58053726 -0.73335706 -6.94670018 -1.6767897 0 0 Z " fill="#000000" transform="translate(398,454)"/>
<path d="M0 0 C3.02182284 2.05741129 4.69011377 3.49949825 5.4453125 7.15625 C5.6370433 10.99086602 5.23221976 13.51536745 3.5625 17 C-0.08801231 19.84918034 -3.42336575 20.2942122 -8 20 C-11.670261 18.43818681 -12.7727373 17.34089404 -15 14 C-15.5454104 10.93421943 -15.53808365 8.0670768 -15 5 C-10.58053726 -0.73335706 -6.94670018 -1.6767897 0 0 Z " fill="#000000" transform="translate(190,454)"/>
</svg>
