<?xml version="1.0" encoding="UTF-8"?>
<svg version="1.1" xmlns="http://www.w3.org/2000/svg" width="512" height="512">
<path d="M0 0 C1.15653076 0.28206299 1.15653076 0.28206299 2.33642578 0.56982422 C30.03478051 7.51236298 52.1606768 21.84555825 73 41 C76.61475047 39.46621826 78.94598019 37.28379252 81.75 34.5625 C114.02578726 4.450206 155.15969731 -4.45166688 198 -3 C204.15247535 -2.58216457 210.03416083 -1.53240727 216 0 C217.17030762 0.29003906 217.17030762 0.29003906 218.36425781 0.5859375 C244.68479396 7.28232832 267.4142188 20.36372936 286.56640625 39.57421875 C287.97252529 40.97582376 289.39341856 42.36353867 290.8515625 43.7109375 C309.55141094 61.25749133 320.29709236 85.68886821 327 110 C327.20625 110.74685059 327.4125 111.49370117 327.625 112.26318359 C332.85647994 132.5592101 332.57136222 159.82557509 327 180 C326.62875 181.34650635 326.62875 181.34650635 326.25 182.72021484 C319.77227909 205.35100254 309.7919321 226.38417547 293.1171875 243.28125 C291.79942692 244.92961953 291.79942692 244.92961953 292.140625 246.9296875 C293.1507363 249.36313744 294.43155486 251.42033503 295.875 253.625 C302.40631453 264.42678941 303.76847286 275.98920971 301.34375 288.34375 C297.94250432 299.72033038 290.80957035 309.59099332 280.3984375 315.46875 C271.59981201 319.73174601 260.66334227 323.22111409 251 320 C251.04640625 320.88300781 251.0928125 321.76601563 251.140625 322.67578125 C251.50765643 334.87957637 248.84552736 344.5018671 241 354 C232.53293329 362.82837011 223.19123902 367.87617108 210.875 368.6875 C209.67617188 368.77386719 208.47734375 368.86023438 207.2421875 368.94921875 C204.52279579 368.99181163 202.55367391 368.84487221 200 368 C200.33 368.66 200.66 369.32 201 370 C201.28279024 383.35173938 197.52123332 394.23223352 188.28125 403.87890625 C179.01822279 412.49161819 168.72529997 416.90097043 156 417 C150.88878844 416.43278787 145.87076053 415.50548327 140.90625 414.1640625 C137.92274344 413.67439886 137.92274344 413.67439886 135.83203125 415.703125 C135.16558594 416.54359375 134.49914062 417.3840625 133.8125 418.25 C127.15367277 426.24283471 119.87425458 433.50726855 111.9609375 440.2578125 C108.91045196 442.96800484 106.09113608 445.90073833 103.2265625 448.8046875 C100.55126223 451.44243969 97.74436261 453.88373601 94.88671875 456.3203125 C93.04043028 457.96400617 91.37543499 459.69579396 89.6875 461.5 C80.34193762 470.93052204 69.73874502 475.22008943 56.625 475.4375 C44.16554845 475.32708254 34.2713354 471.47380117 25 463 C15.15976448 452.23362467 12.40311285 441.24471897 12.859375 427.078125 C12.90578125 426.06234375 12.9521875 425.0465625 13 424 C12.11699219 424.04640625 11.23398438 424.0928125 10.32421875 424.140625 C-2.99353649 424.54115899 -13.31999477 421.11060159 -23.16015625 412 C-31.67058645 403.09188615 -35.21397165 393.36349042 -35.0625 381.1875 C-35.05798828 380.49462891 -35.05347656 379.80175781 -35.04882812 379.08789062 C-35.03713156 377.39188932 -35.01919924 375.69593297 -35 374 C-35.59425781 374.03480469 -36.18851563 374.06960938 -36.80078125 374.10546875 C-49.10497961 374.5073166 -59.77111592 370.79304196 -69.125 362.875 C-77.45497978 355.05684693 -82.66568 345.54077342 -83.17578125 334.03515625 C-83.21464784 330.35362663 -83.13245955 326.67943182 -83 323 C-83.64324219 323.04640625 -84.28648438 323.0928125 -84.94921875 323.140625 C-96.59403625 323.60575323 -106.93422602 320.3559227 -116 313 C-116.62519531 312.49855469 -117.25039062 311.99710937 -117.89453125 311.48046875 C-125.62959386 304.55430158 -130.50949165 293.67235622 -131.265625 283.38671875 C-131.26046875 282.16597656 -131.2553125 280.94523437 -131.25 279.6875 C-131.24871094 278.37523437 -131.24742187 277.06296875 -131.24609375 275.7109375 C-131.02352737 272.35477787 -130.41365092 269.94849664 -129.3125 266.8125 C-128.61890294 264.4553539 -128.61890294 264.4553539 -129 262 C-131.71472819 258.00616529 -134.96434651 254.78929008 -138.45849609 251.47607422 C-163.39983942 227.59337517 -180.67197121 192.9853262 -182.16113281 158.24047852 C-182.53169759 124.16360011 -182.53169759 124.16360011 -179 111 C-178.80664062 110.236875 -178.61328125 109.47375 -178.4140625 108.6875 C-171.88394967 83.21199808 -159.52190572 60.70477362 -141 42 C-140.0436838 40.9861536 -139.08929019 39.97049064 -138.13671875 38.953125 C-104.19580026 3.195156 -47.67568475 -12.10407484 0 0 Z M-133.25341797 60.03466797 C-147.05354414 75.56318567 -155.37991132 94.17524751 -161 114 C-161.36222656 115.26585937 -161.72445312 116.53171875 -162.09765625 117.8359375 C-166.75905409 137.82574591 -165.45246964 160.3161264 -160 180 C-159.50886719 181.8871875 -159.50886719 181.8871875 -159.0078125 183.8125 C-151.6886559 208.60146834 -136.03747446 228.12710104 -118 246 C-114.3136727 244.7251997 -111.99508385 243.35345041 -109.29296875 240.55078125 C-108.62330078 239.86693359 -107.95363281 239.18308594 -107.26367188 238.47851562 C-106.57853516 237.76373047 -105.89339844 237.04894531 -105.1875 236.3125 C-100.54856472 231.52263285 -95.8647678 226.92572478 -90.8059082 222.57885742 C-88.42168552 220.49439506 -86.20868135 218.26837544 -84 216 C-73.06585872 204.99918713 -61.39523663 194.83556467 -45.11254883 194.48095703 C-44.33290771 194.48724121 -43.5532666 194.49352539 -42.75 194.5 C-41.92588623 194.50499512 -41.10177246 194.50999023 -40.25268555 194.51513672 C-29.71463614 194.81279274 -19.52928538 198.4043773 -12 206 C-4.03506323 215.60381265 -0.24619485 224.95102163 0.5625 237.3125 C0.64628906 238.56675781 0.73007813 239.82101562 0.81640625 241.11328125 C0.87699219 242.06589844 0.93757812 243.01851562 1 244 C1.94359375 244.08636719 2.8871875 244.17273438 3.859375 244.26171875 C17.52573384 245.75733433 29.84569084 249.46503469 39.00390625 260.390625 C45.54245838 269.29070013 48.17544502 277.80638758 48.0625 288.875 C48.05347656 290.02742188 48.04445312 291.17984375 48.03515625 292.3671875 C48.01775391 293.67042969 48.01775391 293.67042969 48 295 C49.66675781 295.14695312 49.66675781 295.14695312 51.3671875 295.296875 C65.07660897 296.62185171 76.15388502 299.28015284 85.75390625 309.94921875 C94.61594616 321.25442755 96.3937255 331.84775574 96 346 C97.13695312 346.06316406 98.27390625 346.12632812 99.4453125 346.19140625 C112.13216992 347.11170357 124.59826057 349.7732575 133.4765625 359.80078125 C140.978689 370.63077412 144.49752223 381.81566085 144 395 C151.02765816 399.02648499 158.55360287 399.32623307 166.40625 397.4140625 C172.91277051 394.59973418 178.12226822 388.83471848 181.203125 382.54296875 C183.53856813 375.80203062 183.63585476 369.43582943 181.16015625 362.72265625 C178.31102935 356.95342775 174.08694971 352.81553151 169.4765625 348.40234375 C167.35301981 346.34244036 165.41262811 344.25255017 163.5 342 C160.80388859 338.84605835 157.95183025 335.91626603 155 333 C151.43599698 329.47893677 148.09695832 325.86813992 144.84375 322.0625 C141.84649772 318.70964151 138.60840366 315.60106244 135.41015625 312.44140625 C132.73145468 309.72797273 130.25391882 306.89222977 127.77734375 303.99609375 C125.76731223 301.73867374 123.65167047 299.62264287 121.5 297.5 C118.73439592 294.77170593 116.08712969 292.01483166 113.5625 289.0625 C110.84380752 285.8896408 107.97248325 282.93661618 105 280 C101.43599698 276.47893677 98.09695832 272.86813992 94.84375 269.0625 C92.65203687 266.61075311 90.33932896 264.31114427 88 262 C84.43861653 258.48152476 81.10111916 254.87429588 77.8515625 251.0703125 C75.61780046 248.57264608 73.25829168 246.23017024 70.875 243.875 C60.13150124 233.18055831 60.13150124 233.18055831 60 227 C60.73624945 224.05500219 61.32925506 222.54653291 63.6875 220.625 C67.11521335 219.69859099 69.5685956 220.15719892 73 221 C77.08981091 223.55613182 79.94483552 227.1581877 83.046875 230.79296875 C85.11289649 233.12757303 87.27886164 235.31285865 89.5 237.5 C92.26560408 240.22829407 94.91287031 242.98516834 97.4375 245.9375 C100.15619248 249.1103592 103.02751675 252.06338382 106 255 C109.56400302 258.52106323 112.90304168 262.13186008 116.15625 265.9375 C118.34796313 268.38924689 120.66067104 270.68885573 123 273 C126.56400302 276.52106323 129.90304168 280.13186008 133.15625 283.9375 C135.34796313 286.38924689 137.66067104 288.68885573 140 291 C143.56400302 294.52106323 146.90304168 298.13186008 150.15625 301.9375 C152.34796313 304.38924689 154.66067104 306.68885573 157 309 C160.56400302 312.52106323 163.90304168 316.13186008 167.15625 319.9375 C170.15171965 323.28836436 173.38715243 326.39548419 176.5859375 329.55078125 C178.70188681 331.69754535 180.67774368 333.88902621 182.625 336.1875 C188.7524094 343.30971233 195.17506746 349.44323439 204.75 350.875 C212.67192353 351.40946261 218.7369766 349.40797827 224.875 344.375 C231.00939539 338.39260733 233.17451223 332.97908806 233.5 324.4375 C232.9665605 310.50341369 222.5017629 302.40329295 213.11328125 293.14453125 C211.17443693 291.17701641 209.35779521 289.16051478 207.5625 287.0625 C204.84380752 283.8896408 201.97248325 280.93661618 199 278 C195.41441301 274.45767801 192.05108338 270.82444339 188.77734375 266.99609375 C186.76731223 264.73867374 184.65167047 262.62264287 182.5 260.5 C179.73439592 257.77170593 177.08712969 255.01483166 174.5625 252.0625 C171.84380752 248.8896408 168.97248325 245.93661618 166 243 C162.43599698 239.47893677 159.09695832 235.86813992 155.84375 232.0625 C153.65203687 229.61075311 151.33932896 227.31114427 149 225 C145.43599698 221.47893677 142.09695832 217.86813992 138.84375 214.0625 C135.84894349 210.71237746 132.61366404 207.60623694 129.41796875 204.44921875 C126.69909049 201.69520152 124.17351528 198.82245869 121.6640625 195.87890625 C119.402258 193.32508474 116.96163688 190.97984987 114.48046875 188.640625 C112.32817692 186.25549949 111.10980769 184.19187098 110.8125 180.96484375 C111.00972193 178.8323816 111.26919338 177.01719722 112 175 C115.05083044 172.65866501 116.93755567 171.9880288 120.7734375 172.03125 C125.35282125 173.40617393 127.71735726 176.13483305 130.9375 179.5625 C131.5572168 180.20219727 132.17693359 180.84189453 132.81542969 181.50097656 C136.43068813 185.25726248 139.92903755 189.09795346 143.296875 193.078125 C146.23621638 196.39499647 149.44220719 199.44892758 152.59375 202.5625 C155.24959753 205.25283906 157.70135432 208.06573525 160.15625 210.9375 C162.34796313 213.38924689 164.66067104 215.68885573 167 218 C170.56400302 221.52106323 173.90304168 225.13186008 177.15625 228.9375 C180.15350228 232.29035849 183.39159634 235.39893756 186.58984375 238.55859375 C189.26854532 241.27202727 191.74608118 244.10777023 194.22265625 247.00390625 C196.23268777 249.26132626 198.34832953 251.37735713 200.5 253.5 C203.26560408 256.22829407 205.91287031 258.98516834 208.4375 261.9375 C211.15619248 265.1103592 214.02751675 268.06338382 217 271 C219.84863007 273.81456574 222.60529312 276.62735252 225.1875 279.6875 C228.80759408 283.89650891 232.6705823 287.85661845 236.5625 291.8125 C237.20018311 292.47145264 237.83786621 293.13040527 238.49487305 293.80932617 C244.43828746 299.7958702 249.79854022 302.59988771 258.25 303.25 C266.98536162 302.66764256 273.11466233 299.48452364 279 293 C283.81031536 286.34063278 284.61954875 280.01768974 284 272 C282.68218743 264.29586496 277.20146739 259.45498429 272 254 C270.84659689 252.67320949 269.70015159 251.34032111 268.5625 250 C265.03915395 245.94529086 261.22582762 242.21105862 257.40625 238.4375 C254.75040247 235.74716094 252.29864568 232.93426475 249.84375 230.0625 C247.65203687 227.61075311 245.33932896 225.31114427 243 223 C239.43599698 219.47893677 236.09695832 215.86813992 232.84375 212.0625 C230.65203687 209.61075311 228.33932896 207.31114427 226 205 C222.43599698 201.47893677 219.09695832 197.86813992 215.84375 194.0625 C212.84649772 190.70964151 209.60840366 187.60106244 206.41015625 184.44140625 C203.73145468 181.72797273 201.25391882 178.89222977 198.77734375 175.99609375 C196.76731223 173.73867374 194.65167047 171.62264287 192.5 169.5 C189.73439592 166.77170593 187.08712969 164.01483166 184.5625 161.0625 C181.84380752 157.8896408 178.97248325 154.93661618 176 152 C172.43599698 148.47893677 169.09695832 144.86813992 165.84375 141.0625 C163.65203687 138.61075311 161.33932896 136.31114427 159 134 C156.04816975 131.08373397 153.19611141 128.15394165 150.5 125 C147.71137649 121.79045219 144.90003794 118.60967923 142 115.5 C141.21625 114.6440625 140.4325 113.788125 139.625 112.90625 C136.17079459 110.39783893 134.18233243 110.42492929 130 111 C127.74962092 112.20341522 127.74962092 112.20341522 126 114.0625 C125.3296875 114.70316406 124.659375 115.34382813 123.96875 116.00390625 C123.3190625 116.66261719 122.669375 117.32132812 122 118 C121.4121875 118.58652344 120.824375 119.17304688 120.21875 119.77734375 C119.06444864 120.93426852 117.91475815 122.09581055 116.76953125 123.26171875 C114.96989519 125.02957316 113.10398088 126.67254542 111.1875 128.3125 C107.97666245 131.07618029 104.97732835 133.98619596 102 137 C98.47893677 140.56400302 94.86813992 143.90304168 91.0625 147.15625 C87.71100948 150.1522794 84.60364972 153.38896618 81.4453125 156.5859375 C78.70631049 159.28993629 75.84860252 161.79714636 72.91796875 164.2890625 C70.88972756 166.0983693 69.05329803 168.02444914 67.1875 170 C56.6347576 180.6559982 43.35953068 186.18429277 28.5 186.3125 C13.81535698 186.33923175 0.61460422 181.37336321 -10 171 C-16.54272463 162.93010377 -19.69702711 154.28104983 -19.34375 143.859375 C-17.8313075 131.27860326 -11.59608505 122.73071186 -2.1015625 114.8125 C0.21886345 112.81124044 2.35201473 110.68489223 4.5 108.5 C7.22829407 105.73439592 9.98516834 103.08712969 12.9375 100.5625 C16.1103592 97.84380752 19.06338382 94.97248325 22 92 C25.52106323 88.43599698 29.13186008 85.09695832 32.9375 81.84375 C36.28762254 78.84894349 39.39376306 75.61366404 42.55078125 72.41796875 C45.30058997 69.70324531 48.17063581 67.18232273 51.10546875 64.671875 C54.21537263 61.92746498 57.10923774 58.97206494 60 56 C54.01936313 41.76800316 31.62539664 31.05200294 18 25 C-36.37028647 3.00893652 -93.83861524 17.34807877 -133.25341797 60.03466797 Z M147 19 C145.76636719 19.32742187 144.53273438 19.65484375 143.26171875 19.9921875 C117.75590385 27.49873238 97.8779747 43.79476109 79.59375 62.4375 C77.85334609 64.14377834 76.03793102 65.72641627 74.1875 67.3125 C70.97666245 70.07618029 67.97732835 72.98619596 65 76 C61.47893677 79.56400302 57.86813992 82.90304168 54.0625 86.15625 C51.61075311 88.34796313 49.31114427 90.66067104 47 93 C43.47893677 96.56400302 39.86813992 99.90304168 36.0625 103.15625 C33.61075311 105.34796313 31.31114427 107.66067104 29 110 C26.08373397 112.95183025 23.15394165 115.80388859 20 118.5 C15.06293232 122.72604982 10.55869144 127.37437835 6 132 C5.11441406 132.85851562 4.22882813 133.71703125 3.31640625 134.6015625 C0.00280063 138.03251335 -1.7941906 141.34362292 -2.16796875 146.16796875 C-1.87699983 152.42918876 0.50981093 156.69991974 5 161 C14.00418602 167.67909193 22.84778373 170.10265968 34 169 C45.82446826 166.34227968 53.36930254 158.82478137 61.59765625 150.40625 C63.66754848 148.33299209 65.77288147 146.3999965 68 144.5 C71.15394165 141.80388859 74.08373397 138.95183025 77 136 C80.52106323 132.43599698 84.13186008 129.09695832 87.9375 125.84375 C91.28899052 122.8477206 94.39635028 119.61103382 97.5546875 116.4140625 C100.29192334 113.71180731 103.14601591 111.20517851 106.078125 108.71875 C108.14074763 106.87412813 109.9879709 104.89789519 111.875 102.875 C119.56680506 95.22782824 126.54045053 93.44505282 137.2890625 93.43359375 C146.22139674 94.79695003 151.46928371 99.90864368 157.5625 106.25 C158.27857422 106.97574219 158.99464844 107.70148438 159.73242188 108.44921875 C163.7907301 112.59245972 167.66520664 116.85777104 171.45678711 121.24511719 C173.37857795 123.43050439 175.41168717 125.47402486 177.5 127.5 C180.26560408 130.22829407 182.91287031 132.98516834 185.4375 135.9375 C188.15619248 139.1103592 191.02751675 142.06338382 194 145 C197.56400302 148.52106323 200.90304168 152.13186008 204.15625 155.9375 C206.34796313 158.38924689 208.66067104 160.68885573 211 163 C214.56400302 166.52106323 217.90304168 170.13186008 221.15625 173.9375 C224.15350228 177.29035849 227.39159634 180.39893756 230.58984375 183.55859375 C233.26854532 186.27202727 235.74608118 189.10777023 238.22265625 192.00390625 C240.23268777 194.26132626 242.34832953 196.37735713 244.5 198.5 C247.26560408 201.22829407 249.91287031 203.98516834 252.4375 206.9375 C255.93870655 211.02359489 259.74408731 214.75935677 263.5703125 218.5390625 C266.35380417 221.35835471 268.95162069 224.29663268 271.52734375 227.3046875 C273.26062394 229.30002862 275.09367328 231.16992634 277 233 C280.81493522 231.72835493 282.29514189 229.47262156 284.625 226.375 C285.06376465 225.79306885 285.5025293 225.2111377 285.95458984 224.61157227 C307.64574509 195.31174319 316.60915658 160.12141329 311.31640625 124.03125 C305.35985893 88.33756978 285.09357088 58.0769547 256 37 C241.98125094 27.08514058 225.75140289 20.5845163 209 17 C208.22849609 16.82484863 207.45699219 16.64969727 206.66210938 16.46923828 C198.6266552 14.79742237 190.68503075 14.60229284 182.5 14.625 C181.44318527 14.62531723 181.44318527 14.62531723 180.36502075 14.62564087 C168.82326765 14.66014658 158.09566933 15.72279809 147 19 Z M-67.6875 224.875 C-68.39455078 225.55691406 -69.10160156 226.23882812 -69.83007812 226.94140625 C-73.18622064 230.18928611 -76.48895594 233.48837758 -79.78125 236.80078125 C-82.04929115 239.07560038 -84.34814031 241.24866829 -86.8125 243.3125 C-90.98787896 246.90413666 -94.81868337 250.79467755 -98.67578125 254.72265625 C-100.50011738 256.51019905 -102.27180078 258.04640212 -104.3125 259.5625 C-109.35799966 264.13865086 -112.43547638 270.24319441 -113.23828125 277.0078125 C-113.518338 284.99679991 -111.27087547 291.93425647 -105.8125 297.875 C-99.50472051 303.53994846 -93.07750595 305.70383361 -84.625 305.3046875 C-75.44449795 304.23909351 -70.51682976 299.25102377 -64 293 C-62.9207225 292.00481773 -61.83857187 291.0127444 -60.75390625 290.0234375 C-55.30896609 285.05526508 -49.9708965 280.02527988 -44.80078125 274.76953125 C-43.05173855 273.0508407 -41.24439502 271.46103409 -39.375 269.875 C-23.44666002 256.41234396 -23.44666002 256.41234396 -16.5625 237.375 C-17.74177028 228.2777721 -21.03515431 222.10951376 -28 216 C-33.54583348 212.16533447 -39.09045217 211.52948286 -45.71484375 211.37109375 C-54.80266404 213.11085483 -61.28002515 218.52097026 -67.6875 224.875 Z M-25.92578125 281.921875 C-28.85713219 284.88802737 -31.93050001 287.63008824 -35.109375 290.328125 C-38.14314254 293.01087812 -40.93681963 295.92812559 -43.77734375 298.8125 C-45.80635089 300.80941388 -47.88948975 302.66293458 -50.0625 304.5 C-57.51597651 310.95471066 -63.99603808 317.28601412 -65.30859375 327.37109375 C-65.69602304 334.89661416 -63.97097918 341.50018653 -59.046875 347.30078125 C-52.96705014 353.1148795 -47.33461193 355.51837645 -39.0625 356.4375 C-27.7467044 355.81256454 -20.58737433 348.56584986 -13 341 C-12.32839844 340.33097656 -11.65679687 339.66195312 -10.96484375 338.97265625 C-9.84888017 337.85160855 -8.73668642 336.72679122 -7.62890625 335.59765625 C-5.87668722 333.87905293 -4.05112859 332.28436665 -2.1875 330.6875 C1.94164342 327.1334017 5.7305088 323.28696126 9.5546875 319.41015625 C11.67999665 317.31540267 13.84732991 315.36235452 16.125 313.4375 C24.71390234 305.99843043 30.1615042 299.5464622 31.4375 288.0625 C31.1057106 280.5067505 27.45809577 273.102133 22 268 C1.97541992 255.07185005 -11.68153484 267.42861062 -25.92578125 281.921875 Z M28.3671875 326.5234375 C26.32435492 328.66065838 24.25254058 330.59122063 22 332.5 C18.84605835 335.19611141 15.91626603 338.04816975 13 341 C10.14476317 343.88989828 7.28499804 346.68451745 4.1875 349.3125 C-10.32595441 361.23947557 -10.32595441 361.23947557 -17.390625 377.8671875 C-17.8049468 385.26848155 -16.2975402 390.94241193 -12 397 C-6.40422642 403.15535094 0.03664515 406.49867124 8.359375 407.046875 C18.49934032 406.86687562 24.03939952 401.84133785 31 395 C32.70161316 393.4716514 34.40988565 391.95068193 36.125 390.4375 C39.90741134 387.03923981 43.51231212 383.51349089 47.078125 379.890625 C48.94973642 378.04944628 50.880918 376.33193419 52.875 374.625 C57.84721135 370.34909438 62.39964271 365.66789924 67 361 C68.30130859 359.73929687 68.30130859 359.73929687 69.62890625 358.453125 C71.68524062 356.32564891 73.22922872 354.39316024 74.75 351.875 C75.15734375 351.21242188 75.5646875 350.54984375 75.984375 349.8671875 C78.95294371 344.40958811 78.81007134 338.28908484 77.3515625 332.3671875 C74.57792096 324.61521499 70.13493653 319.36963638 62.8125 315.5625 C48.58964381 309.99913788 38.04682848 316.30101292 28.3671875 326.5234375 Z M77.8125 375.3125 C77.15314453 375.95123047 76.49378906 376.58996094 75.81445312 377.24804688 C73.21133306 379.77935673 70.64753124 382.34816787 68.08862305 384.92407227 C65.20037296 387.829197 62.33088595 390.68000296 59.1875 393.3125 C55.06101281 396.86431199 51.27283852 400.70565423 47.45703125 404.5859375 C45.27723562 406.7276127 43.04282993 408.68218548 40.6875 410.625 C35.45434272 415.0954299 31.41217451 420.80170819 30.7265625 427.78515625 C30.45382187 436.58628671 31.6673188 443.14245718 37.64453125 449.84375 C44.37704994 456.04435412 50.69331463 457.67960866 59.734375 457.390625 C70.40911309 456.11374245 76.63207456 448.76695498 83.6484375 441.38476562 C85.38572725 439.60479679 87.22745803 437.98178957 89.125 436.375 C93.16634105 432.93734475 96.83948495 429.17464614 100.56640625 425.40234375 C102.63242365 423.36285627 104.73005549 421.444922 106.9375 419.5625 C120.30885068 408.46889236 120.30885068 408.46889236 126.36328125 392.83203125 C126.64265454 385.89559168 125.94005766 380.75220962 122 375 C121.443125 374.113125 120.88625 373.22625 120.3125 372.3125 C115.03569753 367.03569753 108.32953132 363.94882121 100.875 363.6875 C91.20168415 363.91739599 84.42558614 368.67309312 77.8125 375.3125 Z " fill="#000000" transform="translate(182,20)"/>
</svg>
